<svg width="122" height="45" viewBox="0 0 122 45" fill="none" xmlns="http://www.w3.org/2000/svg">
<path d="M56.608 1.152V4.44H52.144V18H48.04V4.44H43.576V1.152H56.608ZM57.8517 11.28C57.8517 9.904 58.1077 8.696 58.6197 7.656C59.1477 6.616 59.8597 5.816 60.7557 5.256C61.6517 4.696 62.6517 4.416 63.7557 4.416C64.6997 4.416 65.5237 4.608 66.2277 4.992C66.9477 5.376 67.4997 5.88 67.8837 6.504V4.608H71.9877V18H67.8837V16.104C67.4837 16.728 66.9237 17.232 66.2037 17.616C65.4997 18 64.6757 18.192 63.7317 18.192C62.6437 18.192 61.6517 17.912 60.7557 17.352C59.8597 16.776 59.1477 15.968 58.6197 14.928C58.1077 13.872 57.8517 12.656 57.8517 11.28ZM67.8837 11.304C67.8837 10.28 67.5957 9.472 67.0197 8.88C66.4597 8.288 65.7717 7.992 64.9557 7.992C64.1397 7.992 63.4437 8.288 62.8677 8.88C62.3077 9.456 62.0277 10.256 62.0277 11.28C62.0277 12.304 62.3077 13.12 62.8677 13.728C63.4437 14.32 64.1397 14.616 64.9557 14.616C65.7717 14.616 66.4597 14.32 67.0197 13.728C67.5957 13.136 67.8837 12.328 67.8837 11.304ZM79.0608 0.24V18H74.9568V0.24H79.0608ZM94.6589 11.088C94.6589 11.472 94.6349 11.872 94.5869 12.288H85.2989C85.3629 13.12 85.6269 13.76 86.0909 14.208C86.5709 14.64 87.1549 14.856 87.8429 14.856C88.8669 14.856 89.5789 14.424 89.9789 13.56H94.3469C94.1229 14.44 93.7149 15.232 93.1229 15.936C92.5469 16.64 91.8189 17.192 90.9389 17.592C90.0589 17.992 89.0749 18.192 87.9869 18.192C86.6749 18.192 85.5069 17.912 84.4829 17.352C83.4589 16.792 82.6589 15.992 82.0829 14.952C81.5069 13.912 81.2189 12.696 81.2189 11.304C81.2189 9.912 81.4989 8.696 82.0589 7.656C82.6349 6.616 83.4349 5.816 84.4589 5.256C85.4829 4.696 86.6589 4.416 87.9869 4.416C89.2829 4.416 90.4349 4.688 91.4429 5.232C92.4509 5.776 93.2349 6.552 93.7949 7.56C94.3709 8.568 94.6589 9.744 94.6589 11.088ZM90.4589 10.008C90.4589 9.304 90.2189 8.744 89.7389 8.328C89.2589 7.912 88.6589 7.704 87.9389 7.704C87.2509 7.704 86.6669 7.904 86.1869 8.304C85.7229 8.704 85.4349 9.272 85.3229 10.008H90.4589ZM104.984 4.464C106.552 4.464 107.8 4.976 108.728 6C109.672 7.008 110.144 8.4 110.144 10.176V18H106.064V10.728C106.064 9.832 105.832 9.136 105.368 8.64C104.904 8.144 104.28 7.896 103.496 7.896C102.712 7.896 102.088 8.144 101.624 8.64C101.16 9.136 100.928 9.832 100.928 10.728V18H96.8239V4.608H100.928V6.384C101.344 5.792 101.904 5.328 102.608 4.992C103.312 4.64 104.104 4.464 104.984 4.464ZM120.46 14.52V18H118.372C116.884 18 115.724 17.64 114.892 16.92C114.06 16.184 113.644 14.992 113.644 13.344V8.016H112.012V4.608H113.644V1.344H117.748V4.608H120.436V8.016H117.748V13.392C117.748 13.792 117.844 14.08 118.036 14.256C118.228 14.432 118.548 14.52 118.996 14.52H120.46Z" fill="#000113"/>
<path d="M60.63 30.25V28.794H63.542V39H61.932V30.25H60.63ZM76.1925 29.27V39H74.5965V32.336L71.6285 39H70.5225L67.5405 32.336V39H65.9445V29.27H67.6665L71.0825 36.9L74.4845 29.27H76.1925ZM77.7582 35.108C77.7582 34.3333 77.9169 33.6473 78.2342 33.05C78.5609 32.4527 78.9996 31.9907 79.5502 31.664C80.1102 31.328 80.7262 31.16 81.3982 31.16C82.0049 31.16 82.5322 31.2813 82.9802 31.524C83.4376 31.7573 83.8016 32.0513 84.0722 32.406V31.286H85.6822V39H84.0722V37.852C83.8016 38.216 83.4329 38.5193 82.9662 38.762C82.4996 39.0047 81.9676 39.126 81.3702 39.126C80.7076 39.126 80.1009 38.958 79.5502 38.622C78.9996 38.2767 78.5609 37.8007 78.2342 37.194C77.9169 36.578 77.7582 35.8827 77.7582 35.108ZM84.0722 35.136C84.0722 34.604 83.9602 34.142 83.7362 33.75C83.5216 33.358 83.2369 33.0593 82.8822 32.854C82.5276 32.6487 82.1449 32.546 81.7342 32.546C81.3236 32.546 80.9409 32.6487 80.5862 32.854C80.2316 33.05 79.9422 33.344 79.7182 33.736C79.5036 34.1187 79.3962 34.576 79.3962 35.108C79.3962 35.64 79.5036 36.1067 79.7182 36.508C79.9422 36.9093 80.2316 37.2173 80.5862 37.432C80.9502 37.6373 81.3329 37.74 81.7342 37.74C82.1449 37.74 82.5276 37.6373 82.8822 37.432C83.2369 37.2267 83.5216 36.928 83.7362 36.536C83.9602 36.1347 84.0722 35.668 84.0722 35.136ZM90.8865 31.16C91.4838 31.16 92.0112 31.2813 92.4685 31.524C92.9352 31.7573 93.2992 32.0513 93.5605 32.406V31.286H95.1705V39.126C95.1705 39.8353 95.0212 40.4653 94.7225 41.016C94.4238 41.576 93.9898 42.0147 93.4205 42.332C92.8605 42.6493 92.1885 42.808 91.4045 42.808C90.3592 42.808 89.4912 42.5607 88.8005 42.066C88.1098 41.5807 87.7178 40.918 87.6245 40.078H89.2065C89.3278 40.4793 89.5845 40.8013 89.9765 41.044C90.3778 41.296 90.8538 41.422 91.4045 41.422C92.0485 41.422 92.5665 41.226 92.9585 40.834C93.3598 40.442 93.5605 39.8727 93.5605 39.126V37.838C93.2898 38.202 92.9212 38.51 92.4545 38.762C91.9972 39.0047 91.4745 39.126 90.8865 39.126C90.2145 39.126 89.5985 38.958 89.0385 38.622C88.4878 38.2767 88.0492 37.8007 87.7225 37.194C87.4052 36.578 87.2465 35.8827 87.2465 35.108C87.2465 34.3333 87.4052 33.6473 87.7225 33.05C88.0492 32.4527 88.4878 31.9907 89.0385 31.664C89.5985 31.328 90.2145 31.16 90.8865 31.16ZM93.5605 35.136C93.5605 34.604 93.4485 34.142 93.2245 33.75C93.0098 33.358 92.7252 33.0593 92.3705 32.854C92.0158 32.6487 91.6332 32.546 91.2225 32.546C90.8118 32.546 90.4292 32.6487 90.0745 32.854C89.7198 33.05 89.4305 33.344 89.2065 33.736C88.9918 34.1187 88.8845 34.576 88.8845 35.108C88.8845 35.64 88.9918 36.1067 89.2065 36.508C89.4305 36.9093 89.7198 37.2173 90.0745 37.432C90.4385 37.6373 90.8212 37.74 91.2225 37.74C91.6332 37.74 92.0158 37.6373 92.3705 37.432C92.7252 37.2267 93.0098 36.928 93.2245 36.536C93.4485 36.1347 93.5605 35.668 93.5605 35.136ZM104.337 34.954C104.337 35.2433 104.318 35.5047 104.281 35.738H98.3868C98.4335 36.354 98.6621 36.8487 99.0728 37.222C99.4835 37.5953 99.9875 37.782 100.585 37.782C101.443 37.782 102.05 37.4227 102.405 36.704H104.127C103.893 37.4133 103.469 37.9967 102.853 38.454C102.246 38.902 101.49 39.126 100.585 39.126C99.8475 39.126 99.1848 38.9627 98.5968 38.636C98.0181 38.3 97.5608 37.8333 97.2248 37.236C96.8981 36.6293 96.7348 35.9293 96.7348 35.136C96.7348 34.3427 96.8935 33.6473 97.2108 33.05C97.5375 32.4433 97.9901 31.9767 98.5688 31.65C99.1568 31.3233 99.8288 31.16 100.585 31.16C101.313 31.16 101.961 31.3187 102.531 31.636C103.1 31.9533 103.543 32.4013 103.861 32.98C104.178 33.5493 104.337 34.2073 104.337 34.954ZM102.671 34.45C102.661 33.862 102.451 33.3907 102.041 33.036C101.63 32.6813 101.121 32.504 100.515 32.504C99.9641 32.504 99.4928 32.6813 99.1008 33.036C98.7088 33.3813 98.4755 33.8527 98.4008 34.45H102.671Z" fill="#000113"/>
<g clip-path="url(#clip0_7_947)">
<path d="M40.909 18.416L23.6414 1.14843C22.1813 -0.311725 19.8188 -0.311725 18.3586 1.14843L1.09103 18.416C-0.369128 19.8762 -0.369128 22.2387 1.09103 23.6988L18.3586 40.9664C19.8188 42.4265 22.1813 42.4265 23.6414 40.9664L40.909 23.6988C42.3609 22.2387 42.3609 19.8762 40.909 18.416ZM28.5469 18.1945H28.3172V31.7953C28.3172 33.116 27.2426 34.1906 25.9219 34.1906H15.4793C14.1586 34.1906 13.084 33.116 13.084 31.7953V18.1945H5.36486L20.8195 2.99413L36.2742 18.1945H28.5469Z" fill="#000113"/>
<path d="M30.975 15.4137H22.4274V30.4008C22.4274 31.5492 21.4922 32.4844 20.3438 32.4844C19.1953 32.4844 18.2602 31.5492 18.2602 30.4008V15.4137H10.5574L13.8387 11.8617H27.6938L30.975 15.4137Z" fill="#000113"/>
</g>
<defs>
<clipPath id="clip0_7_947">
<rect width="42" height="42" fill="white"/>
</clipPath>
</defs>
</svg>
